<mxfile host="app.diagrams.net" modified="2023-05-18T12:38:01.729Z" agent="Mozilla/5.0 (Windows NT 10.0; Win64; x64) AppleWebKit/537.36 (KHTML, like Gecko) Chrome/113.0.0.0 Safari/537.36" etag="z60KSTS1TBNXjsur5CF8" version="21.1.5" type="device" pages="3">
  <diagram name="BlockDiagram" id="-w0it-JX62FJ3vuO96YZ">
    <mxGraphModel dx="2464" dy="2055" grid="1" gridSize="10" guides="1" tooltips="1" connect="1" arrows="1" fold="1" page="1" pageScale="1" pageWidth="850" pageHeight="1100" math="0" shadow="0">
      <root>
        <mxCell id="0" />
        <mxCell id="1" parent="0" />
        <mxCell id="vySa6Y8cVNY4edWB1ZwU-48" value="" style="group" parent="1" vertex="1" connectable="0">
          <mxGeometry x="-480" y="-80" width="1560" height="880" as="geometry" />
        </mxCell>
        <mxCell id="vySa6Y8cVNY4edWB1ZwU-1" value="" style="rounded=0;whiteSpace=wrap;html=1;fillColor=#FFF2CC;fontSize=14;" parent="vySa6Y8cVNY4edWB1ZwU-48" vertex="1">
          <mxGeometry width="1560" height="880" as="geometry" />
        </mxCell>
        <mxCell id="vySa6Y8cVNY4edWB1ZwU-2" value="" style="group;fillColor=#DAE8FC;strokeColor=#6c8ebf;fontSize=14;" parent="vySa6Y8cVNY4edWB1ZwU-48" vertex="1" connectable="0">
          <mxGeometry x="850" y="110" width="390" height="180" as="geometry" />
        </mxCell>
        <mxCell id="vySa6Y8cVNY4edWB1ZwU-3" value="" style="group;fillColor=#f8cecc;strokeColor=#b85450;fontSize=14;" parent="vySa6Y8cVNY4edWB1ZwU-2" vertex="1" connectable="0">
          <mxGeometry width="390" height="180" as="geometry" />
        </mxCell>
        <mxCell id="vySa6Y8cVNY4edWB1ZwU-4" value="&lt;u style=&quot;font-size: 14px;&quot;&gt;&lt;br style=&quot;font-size: 14px;&quot;&gt;USER INTERFACE: Web Application&lt;/u&gt;" style="rounded=0;whiteSpace=wrap;html=1;verticalAlign=top;fontSize=14;" parent="vySa6Y8cVNY4edWB1ZwU-3" vertex="1">
          <mxGeometry width="390" height="180" as="geometry" />
        </mxCell>
        <mxCell id="vySa6Y8cVNY4edWB1ZwU-5" value="&lt;b style=&quot;font-size: 14px;&quot;&gt;Upload Blood &lt;br style=&quot;font-size: 14px;&quot;&gt;Report Scan&lt;/b&gt;" style="rounded=0;whiteSpace=wrap;html=1;fillColor=#d5e8d4;strokeColor=#82b366;fontSize=14;" parent="vySa6Y8cVNY4edWB1ZwU-3" vertex="1">
          <mxGeometry x="40" y="70" width="120" height="60" as="geometry" />
        </mxCell>
        <mxCell id="vySa6Y8cVNY4edWB1ZwU-6" value="&lt;b style=&quot;font-size: 14px;&quot;&gt;Report Generation &lt;br style=&quot;font-size: 14px;&quot;&gt;&amp;amp; Download&lt;/b&gt;" style="rounded=0;whiteSpace=wrap;html=1;fillColor=#d5e8d4;strokeColor=#82b366;fontSize=14;" parent="vySa6Y8cVNY4edWB1ZwU-3" vertex="1">
          <mxGeometry x="230" y="70" width="120" height="60" as="geometry" />
        </mxCell>
        <mxCell id="vySa6Y8cVNY4edWB1ZwU-7" value="" style="group;fontSize=14;" parent="vySa6Y8cVNY4edWB1ZwU-48" vertex="1" connectable="0">
          <mxGeometry x="600" y="320" width="420" height="480" as="geometry" />
        </mxCell>
        <mxCell id="vySa6Y8cVNY4edWB1ZwU-8" value="" style="group;fontSize=14;" parent="vySa6Y8cVNY4edWB1ZwU-7" vertex="1" connectable="0">
          <mxGeometry width="420" height="480" as="geometry" />
        </mxCell>
        <mxCell id="vySa6Y8cVNY4edWB1ZwU-9" value="&lt;u style=&quot;font-size: 14px;&quot;&gt;&lt;br style=&quot;font-size: 14px;&quot;&gt;DATA EXTRACTION&lt;/u&gt;" style="rounded=0;whiteSpace=wrap;html=1;verticalAlign=top;fontSize=14;" parent="vySa6Y8cVNY4edWB1ZwU-8" vertex="1">
          <mxGeometry width="420" height="480" as="geometry" />
        </mxCell>
        <mxCell id="vySa6Y8cVNY4edWB1ZwU-10" style="edgeStyle=orthogonalEdgeStyle;rounded=0;orthogonalLoop=1;jettySize=auto;html=1;exitX=0.5;exitY=1;exitDx=0;exitDy=0;entryX=0.5;entryY=0;entryDx=0;entryDy=0;fontSize=14;" parent="vySa6Y8cVNY4edWB1ZwU-8" source="vySa6Y8cVNY4edWB1ZwU-11" target="vySa6Y8cVNY4edWB1ZwU-13" edge="1">
          <mxGeometry relative="1" as="geometry" />
        </mxCell>
        <mxCell id="vySa6Y8cVNY4edWB1ZwU-11" value="&lt;b style=&quot;font-size: 14px;&quot;&gt;Object Detection:&lt;/b&gt; &lt;br style=&quot;font-size: 14px;&quot;&gt;Trained model locates fields &amp;amp; values and classifies the detected field&lt;br style=&quot;font-size: 14px;&quot;&gt;&lt;br style=&quot;font-size: 14px;&quot;&gt;Example:&lt;br style=&quot;font-size: 14px;&quot;&gt;Object: Haemoglobin: 12.5 g/dl&amp;nbsp;&lt;br style=&quot;font-size: 14px;&quot;&gt;Location: x,y,h,w (1.2,3.75,5,7)&lt;br style=&quot;font-size: 14px;&quot;&gt;Class: &#39;hb&#39;" style="rounded=0;whiteSpace=wrap;html=1;fillColor=#fff2cc;strokeColor=#d6b656;fontSize=14;spacing=5;" parent="vySa6Y8cVNY4edWB1ZwU-8" vertex="1">
          <mxGeometry x="78.53" y="60" width="262.94" height="150" as="geometry" />
        </mxCell>
        <mxCell id="vySa6Y8cVNY4edWB1ZwU-12" style="edgeStyle=orthogonalEdgeStyle;rounded=0;orthogonalLoop=1;jettySize=auto;html=1;exitX=0.5;exitY=1;exitDx=0;exitDy=0;entryX=0.5;entryY=0;entryDx=0;entryDy=0;fontSize=14;" parent="vySa6Y8cVNY4edWB1ZwU-8" source="vySa6Y8cVNY4edWB1ZwU-13" target="vySa6Y8cVNY4edWB1ZwU-14" edge="1">
          <mxGeometry relative="1" as="geometry" />
        </mxCell>
        <mxCell id="vySa6Y8cVNY4edWB1ZwU-13" value="&lt;b style=&quot;font-size: 14px;&quot;&gt;Image Processing: &lt;/b&gt;&lt;br style=&quot;font-size: 14px;&quot;&gt;Segment image into group of cropped images of separate objects" style="rounded=0;whiteSpace=wrap;html=1;fillColor=#fff2cc;strokeColor=#d6b656;fontSize=14;" parent="vySa6Y8cVNY4edWB1ZwU-8" vertex="1">
          <mxGeometry x="127.6470588235294" y="230" width="156.47058823529414" height="90" as="geometry" />
        </mxCell>
        <mxCell id="vySa6Y8cVNY4edWB1ZwU-14" value="&lt;b style=&quot;font-size: 14px;&quot;&gt;OCR:&lt;/b&gt; &lt;br style=&quot;font-size: 14px;&quot;&gt;Extract the text from the cropped images and store the values in a dataframe" style="rounded=0;whiteSpace=wrap;html=1;fillColor=#fff2cc;strokeColor=#d6b656;fontSize=14;" parent="vySa6Y8cVNY4edWB1ZwU-8" vertex="1">
          <mxGeometry x="127.6470588235294" y="340" width="156.47058823529414" height="90" as="geometry" />
        </mxCell>
        <mxCell id="vySa6Y8cVNY4edWB1ZwU-15" value="" style="group;fillColor=#d5e8d4;strokeColor=#82b366;fillStyle=solid;fontSize=14;" parent="vySa6Y8cVNY4edWB1ZwU-48" vertex="1" connectable="0">
          <mxGeometry x="1170" y="350" width="280" height="280" as="geometry" />
        </mxCell>
        <mxCell id="vySa6Y8cVNY4edWB1ZwU-16" value="&lt;u style=&quot;font-size: 14px;&quot;&gt;&lt;br style=&quot;font-size: 14px;&quot;&gt;REPORT GENERATION&lt;/u&gt;" style="rounded=0;whiteSpace=wrap;html=1;verticalAlign=top;fontSize=14;" parent="vySa6Y8cVNY4edWB1ZwU-15" vertex="1">
          <mxGeometry width="280" height="280" as="geometry" />
        </mxCell>
        <mxCell id="vySa6Y8cVNY4edWB1ZwU-17" style="edgeStyle=orthogonalEdgeStyle;rounded=0;orthogonalLoop=1;jettySize=auto;html=1;exitX=0.5;exitY=1;exitDx=0;exitDy=0;entryX=0.5;entryY=0;entryDx=0;entryDy=0;fontSize=14;" parent="vySa6Y8cVNY4edWB1ZwU-15" source="vySa6Y8cVNY4edWB1ZwU-18" target="vySa6Y8cVNY4edWB1ZwU-19" edge="1">
          <mxGeometry relative="1" as="geometry" />
        </mxCell>
        <mxCell id="vySa6Y8cVNY4edWB1ZwU-18" value="&lt;b style=&quot;font-size: 14px;&quot;&gt;Calculations: &lt;br style=&quot;font-size: 14px;&quot;&gt;&lt;/b&gt;Abnormal values are identified &lt;br style=&quot;font-size: 14px;&quot;&gt;and deviation is calculated taking &lt;br style=&quot;font-size: 14px;&quot;&gt;into account age and sex" style="rounded=0;whiteSpace=wrap;html=1;fillColor=#dae8fc;strokeColor=#6c8ebf;fontSize=14;" parent="vySa6Y8cVNY4edWB1ZwU-15" vertex="1">
          <mxGeometry x="37.5" y="50" width="205" height="90" as="geometry" />
        </mxCell>
        <mxCell id="vySa6Y8cVNY4edWB1ZwU-19" value="&lt;b style=&quot;font-size: 14px;&quot;&gt;Cause &amp;amp; Solutions Suggestions: &lt;br style=&quot;font-size: 14px;&quot;&gt;&lt;/b&gt;Research-based likely causes and solutions are suggested" style="rounded=0;whiteSpace=wrap;html=1;fillColor=#dae8fc;strokeColor=#6c8ebf;fontSize=14;" parent="vySa6Y8cVNY4edWB1ZwU-15" vertex="1">
          <mxGeometry x="37.5" y="160" width="205" height="90" as="geometry" />
        </mxCell>
        <mxCell id="vySa6Y8cVNY4edWB1ZwU-20" style="edgeStyle=orthogonalEdgeStyle;rounded=0;orthogonalLoop=1;jettySize=auto;html=1;exitX=0.5;exitY=1;exitDx=0;exitDy=0;exitPerimeter=0;fontSize=14;" parent="vySa6Y8cVNY4edWB1ZwU-48" source="vySa6Y8cVNY4edWB1ZwU-21" target="vySa6Y8cVNY4edWB1ZwU-9" edge="1">
          <mxGeometry relative="1" as="geometry" />
        </mxCell>
        <mxCell id="vySa6Y8cVNY4edWB1ZwU-21" value="Image" style="shape=note;whiteSpace=wrap;html=1;backgroundOutline=1;darkOpacity=0.05;fillColor=#f8cecc;strokeColor=#b85450;fontSize=14;" parent="vySa6Y8cVNY4edWB1ZwU-48" vertex="1">
          <mxGeometry x="720" y="180" width="70" height="90" as="geometry" />
        </mxCell>
        <mxCell id="vySa6Y8cVNY4edWB1ZwU-22" style="edgeStyle=orthogonalEdgeStyle;rounded=0;orthogonalLoop=1;jettySize=auto;html=1;entryX=1;entryY=0.5;entryDx=0;entryDy=0;fontSize=14;" parent="vySa6Y8cVNY4edWB1ZwU-48" source="vySa6Y8cVNY4edWB1ZwU-23" target="vySa6Y8cVNY4edWB1ZwU-6" edge="1">
          <mxGeometry relative="1" as="geometry" />
        </mxCell>
        <mxCell id="vySa6Y8cVNY4edWB1ZwU-23" value="PDF" style="shape=note;whiteSpace=wrap;html=1;backgroundOutline=1;darkOpacity=0.05;fillColor=#f8cecc;strokeColor=#b85450;fontSize=14;" parent="vySa6Y8cVNY4edWB1ZwU-48" vertex="1">
          <mxGeometry x="1400" y="165" width="70" height="90" as="geometry" />
        </mxCell>
        <mxCell id="vySa6Y8cVNY4edWB1ZwU-24" style="edgeStyle=orthogonalEdgeStyle;rounded=0;orthogonalLoop=1;jettySize=auto;html=1;exitX=0;exitY=0;exitDx=35;exitDy=0;exitPerimeter=0;entryX=0.5;entryY=0;entryDx=0;entryDy=0;fontSize=14;" parent="vySa6Y8cVNY4edWB1ZwU-48" source="vySa6Y8cVNY4edWB1ZwU-25" target="vySa6Y8cVNY4edWB1ZwU-16" edge="1">
          <mxGeometry relative="1" as="geometry" />
        </mxCell>
        <mxCell id="vySa6Y8cVNY4edWB1ZwU-25" value="Dataframe" style="shape=cube;whiteSpace=wrap;html=1;boundedLbl=1;backgroundOutline=1;darkOpacity=0.05;darkOpacity2=0.1;fillColor=#f8cecc;strokeColor=#b85450;fontSize=14;" parent="vySa6Y8cVNY4edWB1ZwU-48" vertex="1">
          <mxGeometry x="1050" y="500" width="90" height="60" as="geometry" />
        </mxCell>
        <mxCell id="vySa6Y8cVNY4edWB1ZwU-26" style="edgeStyle=orthogonalEdgeStyle;rounded=0;orthogonalLoop=1;jettySize=auto;html=1;exitX=0;exitY=0.5;exitDx=0;exitDy=0;entryX=0;entryY=0;entryDx=70;entryDy=30;entryPerimeter=0;fontSize=14;" parent="vySa6Y8cVNY4edWB1ZwU-48" source="vySa6Y8cVNY4edWB1ZwU-5" target="vySa6Y8cVNY4edWB1ZwU-21" edge="1">
          <mxGeometry relative="1" as="geometry" />
        </mxCell>
        <mxCell id="vySa6Y8cVNY4edWB1ZwU-27" style="edgeStyle=orthogonalEdgeStyle;rounded=0;orthogonalLoop=1;jettySize=auto;html=1;exitX=0.5;exitY=1;exitDx=0;exitDy=0;entryX=0;entryY=0;entryDx=55;entryDy=60;entryPerimeter=0;fontSize=14;" parent="vySa6Y8cVNY4edWB1ZwU-48" source="vySa6Y8cVNY4edWB1ZwU-9" target="vySa6Y8cVNY4edWB1ZwU-25" edge="1">
          <mxGeometry relative="1" as="geometry" />
        </mxCell>
        <mxCell id="vySa6Y8cVNY4edWB1ZwU-28" style="edgeStyle=orthogonalEdgeStyle;rounded=0;orthogonalLoop=1;jettySize=auto;html=1;exitX=0.5;exitY=1;exitDx=0;exitDy=0;entryX=0;entryY=0;entryDx=70;entryDy=60;entryPerimeter=0;fontSize=14;" parent="vySa6Y8cVNY4edWB1ZwU-48" source="vySa6Y8cVNY4edWB1ZwU-16" target="vySa6Y8cVNY4edWB1ZwU-23" edge="1">
          <mxGeometry relative="1" as="geometry">
            <mxPoint x="1440" y="270" as="targetPoint" />
          </mxGeometry>
        </mxCell>
        <mxCell id="vySa6Y8cVNY4edWB1ZwU-29" value="&lt;b style=&quot;font-size: 14px;&quot;&gt;&lt;font style=&quot;font-size: 14px;&quot;&gt;HIGH LEVEL BLOCK DIAGRAM&lt;/font&gt;&lt;/b&gt;" style="text;strokeColor=none;align=center;fillColor=none;html=1;verticalAlign=middle;whiteSpace=wrap;rounded=0;fontStyle=4;fontSize=14;" parent="vySa6Y8cVNY4edWB1ZwU-48" vertex="1">
          <mxGeometry x="635" y="30" width="290" height="30" as="geometry" />
        </mxCell>
        <mxCell id="vySa6Y8cVNY4edWB1ZwU-30" value="" style="group;fontSize=14;" parent="vySa6Y8cVNY4edWB1ZwU-48" vertex="1" connectable="0">
          <mxGeometry x="60" y="110" width="420" height="690" as="geometry" />
        </mxCell>
        <mxCell id="vySa6Y8cVNY4edWB1ZwU-31" value="&lt;u style=&quot;font-size: 14px;&quot;&gt;&lt;br style=&quot;font-size: 14px;&quot;&gt;MODEL TRAINING&lt;/u&gt;" style="rounded=0;whiteSpace=wrap;html=1;verticalAlign=top;fontSize=14;" parent="vySa6Y8cVNY4edWB1ZwU-30" vertex="1">
          <mxGeometry width="420" height="690" as="geometry" />
        </mxCell>
        <mxCell id="vySa6Y8cVNY4edWB1ZwU-32" value="Report Collection:&lt;br style=&quot;font-size: 14px;&quot;&gt;Collected various reports from Internet" style="rounded=0;whiteSpace=wrap;html=1;fillColor=#e1d5e7;strokeColor=#9673a6;fontSize=14;" parent="vySa6Y8cVNY4edWB1ZwU-30" vertex="1">
          <mxGeometry x="110" y="60" width="200" height="60" as="geometry" />
        </mxCell>
        <mxCell id="vySa6Y8cVNY4edWB1ZwU-33" value="Report Selection:&lt;br style=&quot;font-size: 14px;&quot;&gt;Selecting most consistent report formats" style="rounded=0;whiteSpace=wrap;html=1;fillColor=#e1d5e7;strokeColor=#9673a6;fontSize=14;" parent="vySa6Y8cVNY4edWB1ZwU-30" vertex="1">
          <mxGeometry x="115" y="150" width="190" height="60" as="geometry" />
        </mxCell>
        <mxCell id="vySa6Y8cVNY4edWB1ZwU-34" style="edgeStyle=orthogonalEdgeStyle;rounded=0;orthogonalLoop=1;jettySize=auto;html=1;exitX=0.5;exitY=1;exitDx=0;exitDy=0;entryX=0.5;entryY=0;entryDx=0;entryDy=0;fontSize=14;" parent="vySa6Y8cVNY4edWB1ZwU-30" source="vySa6Y8cVNY4edWB1ZwU-32" target="vySa6Y8cVNY4edWB1ZwU-33" edge="1">
          <mxGeometry relative="1" as="geometry" />
        </mxCell>
        <mxCell id="vySa6Y8cVNY4edWB1ZwU-35" value="Data Augmentation" style="rounded=0;whiteSpace=wrap;html=1;fillColor=#e1d5e7;strokeColor=#9673a6;fontSize=14;" parent="vySa6Y8cVNY4edWB1ZwU-30" vertex="1">
          <mxGeometry x="150" y="230" width="120" height="60" as="geometry" />
        </mxCell>
        <mxCell id="vySa6Y8cVNY4edWB1ZwU-36" style="edgeStyle=orthogonalEdgeStyle;rounded=0;orthogonalLoop=1;jettySize=auto;html=1;exitX=0.5;exitY=1;exitDx=0;exitDy=0;entryX=0.5;entryY=0;entryDx=0;entryDy=0;fontSize=14;" parent="vySa6Y8cVNY4edWB1ZwU-30" source="vySa6Y8cVNY4edWB1ZwU-33" target="vySa6Y8cVNY4edWB1ZwU-35" edge="1">
          <mxGeometry relative="1" as="geometry" />
        </mxCell>
        <mxCell id="vySa6Y8cVNY4edWB1ZwU-37" value="Manually annotate data (manually select positions of desired objects)" style="rounded=0;whiteSpace=wrap;html=1;fillColor=#e1d5e7;strokeColor=#9673a6;fontSize=14;" parent="vySa6Y8cVNY4edWB1ZwU-30" vertex="1">
          <mxGeometry x="125" y="320" width="170" height="70" as="geometry" />
        </mxCell>
        <mxCell id="vySa6Y8cVNY4edWB1ZwU-38" style="edgeStyle=orthogonalEdgeStyle;rounded=0;orthogonalLoop=1;jettySize=auto;html=1;exitX=0.5;exitY=1;exitDx=0;exitDy=0;entryX=0.5;entryY=0;entryDx=0;entryDy=0;fontSize=14;" parent="vySa6Y8cVNY4edWB1ZwU-30" source="vySa6Y8cVNY4edWB1ZwU-35" target="vySa6Y8cVNY4edWB1ZwU-37" edge="1">
          <mxGeometry relative="1" as="geometry" />
        </mxCell>
        <mxCell id="vySa6Y8cVNY4edWB1ZwU-39" value="Training CNN model&amp;nbsp;" style="rounded=0;whiteSpace=wrap;html=1;fillColor=#e1d5e7;strokeColor=#9673a6;fontSize=14;" parent="vySa6Y8cVNY4edWB1ZwU-30" vertex="1">
          <mxGeometry x="135" y="410" width="150" height="60" as="geometry" />
        </mxCell>
        <mxCell id="vySa6Y8cVNY4edWB1ZwU-40" style="edgeStyle=orthogonalEdgeStyle;rounded=0;orthogonalLoop=1;jettySize=auto;html=1;exitX=0.5;exitY=1;exitDx=0;exitDy=0;entryX=0.5;entryY=0;entryDx=0;entryDy=0;fontSize=14;" parent="vySa6Y8cVNY4edWB1ZwU-30" source="vySa6Y8cVNY4edWB1ZwU-37" target="vySa6Y8cVNY4edWB1ZwU-39" edge="1">
          <mxGeometry relative="1" as="geometry" />
        </mxCell>
        <mxCell id="vySa6Y8cVNY4edWB1ZwU-41" value="Test Model" style="rounded=0;whiteSpace=wrap;html=1;fillColor=#e1d5e7;strokeColor=#9673a6;fontSize=14;" parent="vySa6Y8cVNY4edWB1ZwU-30" vertex="1">
          <mxGeometry x="135" y="500" width="150" height="60" as="geometry" />
        </mxCell>
        <mxCell id="vySa6Y8cVNY4edWB1ZwU-42" style="edgeStyle=orthogonalEdgeStyle;rounded=0;orthogonalLoop=1;jettySize=auto;html=1;exitX=0.5;exitY=1;exitDx=0;exitDy=0;entryX=0.5;entryY=0;entryDx=0;entryDy=0;fontSize=14;" parent="vySa6Y8cVNY4edWB1ZwU-30" source="vySa6Y8cVNY4edWB1ZwU-39" target="vySa6Y8cVNY4edWB1ZwU-41" edge="1">
          <mxGeometry relative="1" as="geometry" />
        </mxCell>
        <mxCell id="vySa6Y8cVNY4edWB1ZwU-43" value="Save best performing version of model" style="rounded=0;whiteSpace=wrap;html=1;fillColor=#e1d5e7;strokeColor=#9673a6;fontSize=14;" parent="vySa6Y8cVNY4edWB1ZwU-30" vertex="1">
          <mxGeometry x="135" y="590" width="150" height="60" as="geometry" />
        </mxCell>
        <mxCell id="vySa6Y8cVNY4edWB1ZwU-44" style="edgeStyle=orthogonalEdgeStyle;rounded=0;orthogonalLoop=1;jettySize=auto;html=1;exitX=0.5;exitY=1;exitDx=0;exitDy=0;entryX=0.5;entryY=0;entryDx=0;entryDy=0;fontSize=14;" parent="vySa6Y8cVNY4edWB1ZwU-30" source="vySa6Y8cVNY4edWB1ZwU-41" target="vySa6Y8cVNY4edWB1ZwU-43" edge="1">
          <mxGeometry relative="1" as="geometry" />
        </mxCell>
        <mxCell id="vySa6Y8cVNY4edWB1ZwU-45" style="edgeStyle=orthogonalEdgeStyle;rounded=0;orthogonalLoop=1;jettySize=auto;html=1;entryX=0;entryY=0.5;entryDx=0;entryDy=0;fontSize=14;" parent="vySa6Y8cVNY4edWB1ZwU-48" source="vySa6Y8cVNY4edWB1ZwU-46" target="vySa6Y8cVNY4edWB1ZwU-11" edge="1">
          <mxGeometry relative="1" as="geometry" />
        </mxCell>
        <mxCell id="vySa6Y8cVNY4edWB1ZwU-46" value="Model" style="shape=cube;whiteSpace=wrap;html=1;boundedLbl=1;backgroundOutline=1;darkOpacity=0.05;darkOpacity2=0.1;fillColor=#f8cecc;strokeColor=#b85450;fontSize=14;" parent="vySa6Y8cVNY4edWB1ZwU-48" vertex="1">
          <mxGeometry x="500" y="535" width="80" height="50" as="geometry" />
        </mxCell>
        <mxCell id="vySa6Y8cVNY4edWB1ZwU-47" style="edgeStyle=orthogonalEdgeStyle;rounded=0;orthogonalLoop=1;jettySize=auto;html=1;exitX=0.5;exitY=1;exitDx=0;exitDy=0;entryX=0;entryY=0;entryDx=0;entryDy=30;entryPerimeter=0;fontSize=14;" parent="vySa6Y8cVNY4edWB1ZwU-48" source="vySa6Y8cVNY4edWB1ZwU-43" target="vySa6Y8cVNY4edWB1ZwU-46" edge="1">
          <mxGeometry relative="1" as="geometry" />
        </mxCell>
      </root>
    </mxGraphModel>
  </diagram>
  <diagram id="EFKzNHxw1kp1smB3JLVh" name="ClassDiagram">
    <mxGraphModel dx="2349" dy="1987" grid="1" gridSize="10" guides="1" tooltips="1" connect="1" arrows="1" fold="1" page="1" pageScale="1" pageWidth="850" pageHeight="1100" math="0" shadow="0">
      <root>
        <mxCell id="0" />
        <mxCell id="1" parent="0" />
        <mxCell id="wWRGcco-_Qgq0vjqzlyI-1" value="" style="rounded=0;whiteSpace=wrap;html=1;fillColor=#FFF2CC;fontSize=14;" parent="1" vertex="1">
          <mxGeometry x="-630" y="-110" width="1750" height="1010" as="geometry" />
        </mxCell>
        <mxCell id="wWRGcco-_Qgq0vjqzlyI-2" value="" style="group;fillColor=#DAE8FC;strokeColor=#6c8ebf;fontSize=14;" parent="1" vertex="1" connectable="0">
          <mxGeometry x="500" y="-10" width="410" height="210" as="geometry" />
        </mxCell>
        <mxCell id="wWRGcco-_Qgq0vjqzlyI-3" value="" style="group;fillColor=#f8cecc;strokeColor=#b85450;fontSize=14;" parent="wWRGcco-_Qgq0vjqzlyI-2" vertex="1" connectable="0">
          <mxGeometry width="410" height="210" as="geometry" />
        </mxCell>
        <mxCell id="wWRGcco-_Qgq0vjqzlyI-4" value="&lt;span style=&quot;font-size: 14px;&quot;&gt;&lt;br style=&quot;font-size: 14px;&quot;&gt;&lt;u&gt;USER INTERFACE: Web Application&lt;/u&gt;&lt;br&gt;&lt;br&gt;&lt;/span&gt;" style="rounded=0;whiteSpace=wrap;html=1;verticalAlign=top;fontSize=14;" parent="wWRGcco-_Qgq0vjqzlyI-3" vertex="1">
          <mxGeometry width="410" height="210" as="geometry" />
        </mxCell>
        <mxCell id="1__zICVQzKlzmBsEgXCl-1" value="Upload Image" style="swimlane;fontStyle=1;align=center;verticalAlign=top;childLayout=stackLayout;horizontal=1;startSize=26;horizontalStack=0;resizeParent=1;resizeParentMax=0;resizeLast=0;collapsible=1;marginBottom=0;whiteSpace=wrap;html=1;fillColor=#d5e8d4;strokeColor=#82b366;" parent="wWRGcco-_Qgq0vjqzlyI-3" vertex="1">
          <mxGeometry x="31.53846153846154" y="74.11764705882354" width="168.2051282051282" height="100.11764705882354" as="geometry" />
        </mxCell>
        <mxCell id="1__zICVQzKlzmBsEgXCl-2" value="+ image: JPG file" style="text;strokeColor=none;fillColor=none;align=left;verticalAlign=top;spacingLeft=4;spacingRight=4;overflow=hidden;rotatable=0;points=[[0,0.5],[1,0.5]];portConstraint=eastwest;whiteSpace=wrap;html=1;" parent="1__zICVQzKlzmBsEgXCl-1" vertex="1">
          <mxGeometry y="26" width="168.2051282051282" height="32.11764705882353" as="geometry" />
        </mxCell>
        <mxCell id="1__zICVQzKlzmBsEgXCl-3" value="" style="line;strokeWidth=1;fillColor=none;align=left;verticalAlign=middle;spacingTop=-1;spacingLeft=3;spacingRight=3;rotatable=0;labelPosition=right;points=[];portConstraint=eastwest;strokeColor=inherit;" parent="1__zICVQzKlzmBsEgXCl-1" vertex="1">
          <mxGeometry y="58.11764705882353" width="168.2051282051282" height="9.882352941176471" as="geometry" />
        </mxCell>
        <mxCell id="1__zICVQzKlzmBsEgXCl-4" value="+ uploadImage(image)" style="text;strokeColor=none;fillColor=none;align=left;verticalAlign=top;spacingLeft=4;spacingRight=4;overflow=hidden;rotatable=0;points=[[0,0.5],[1,0.5]];portConstraint=eastwest;whiteSpace=wrap;html=1;" parent="1__zICVQzKlzmBsEgXCl-1" vertex="1">
          <mxGeometry y="68" width="168.2051282051282" height="32.11764705882353" as="geometry" />
        </mxCell>
        <mxCell id="1__zICVQzKlzmBsEgXCl-5" value="Report Generation" style="swimlane;fontStyle=1;align=center;verticalAlign=top;childLayout=stackLayout;horizontal=1;startSize=26;horizontalStack=0;resizeParent=1;resizeParentMax=0;resizeLast=0;collapsible=1;marginBottom=0;whiteSpace=wrap;html=1;fillColor=#d5e8d4;strokeColor=#82b366;" parent="wWRGcco-_Qgq0vjqzlyI-3" vertex="1">
          <mxGeometry x="210" y="64.18" width="180" height="120" as="geometry" />
        </mxCell>
        <mxCell id="1__zICVQzKlzmBsEgXCl-6" value="+ report: String&lt;br&gt;+ report_pdf: pdf file" style="text;strokeColor=none;fillColor=none;align=left;verticalAlign=top;spacingLeft=4;spacingRight=4;overflow=hidden;rotatable=0;points=[[0,0.5],[1,0.5]];portConstraint=eastwest;whiteSpace=wrap;html=1;" parent="1__zICVQzKlzmBsEgXCl-5" vertex="1">
          <mxGeometry y="26" width="180" height="44" as="geometry" />
        </mxCell>
        <mxCell id="1__zICVQzKlzmBsEgXCl-7" value="" style="line;strokeWidth=1;fillColor=none;align=left;verticalAlign=middle;spacingTop=-1;spacingLeft=3;spacingRight=3;rotatable=0;labelPosition=right;points=[];portConstraint=eastwest;strokeColor=inherit;" parent="1__zICVQzKlzmBsEgXCl-5" vertex="1">
          <mxGeometry y="70" width="180" height="8" as="geometry" />
        </mxCell>
        <mxCell id="1__zICVQzKlzmBsEgXCl-8" value="+create_pdf(report)&lt;br&gt;+download_pdf(report_pdf)" style="text;strokeColor=none;fillColor=none;align=left;verticalAlign=top;spacingLeft=4;spacingRight=4;overflow=hidden;rotatable=0;points=[[0,0.5],[1,0.5]];portConstraint=eastwest;whiteSpace=wrap;html=1;" parent="1__zICVQzKlzmBsEgXCl-5" vertex="1">
          <mxGeometry y="78" width="180" height="42" as="geometry" />
        </mxCell>
        <mxCell id="wWRGcco-_Qgq0vjqzlyI-7" value="" style="group;fontSize=14;" parent="1" vertex="1" connectable="0">
          <mxGeometry x="120" y="240" width="420" height="600" as="geometry" />
        </mxCell>
        <mxCell id="wWRGcco-_Qgq0vjqzlyI-8" value="" style="group;fontSize=14;" parent="wWRGcco-_Qgq0vjqzlyI-7" vertex="1" connectable="0">
          <mxGeometry width="420" height="600" as="geometry" />
        </mxCell>
        <mxCell id="wWRGcco-_Qgq0vjqzlyI-9" value="&lt;u style=&quot;font-size: 14px;&quot;&gt;&lt;br style=&quot;font-size: 14px;&quot;&gt;DATA EXTRACTION&lt;/u&gt;" style="rounded=0;whiteSpace=wrap;html=1;verticalAlign=top;fontSize=14;" parent="wWRGcco-_Qgq0vjqzlyI-8" vertex="1">
          <mxGeometry width="420" height="600" as="geometry" />
        </mxCell>
        <mxCell id="VNDOCuLY1nb_13rOftg5-10" style="edgeStyle=orthogonalEdgeStyle;rounded=0;orthogonalLoop=1;jettySize=auto;html=1;exitX=0;exitY=0.5;exitDx=0;exitDy=0;entryX=0;entryY=0.291;entryDx=0;entryDy=0;entryPerimeter=0;" parent="wWRGcco-_Qgq0vjqzlyI-8" source="1__zICVQzKlzmBsEgXCl-68" target="1__zICVQzKlzmBsEgXCl-73" edge="1">
          <mxGeometry relative="1" as="geometry">
            <Array as="points">
              <mxPoint x="86" y="200" />
              <mxPoint x="66" y="200" />
              <mxPoint x="66" y="283" />
            </Array>
          </mxGeometry>
        </mxCell>
        <mxCell id="1__zICVQzKlzmBsEgXCl-68" value="Object Detection" style="swimlane;fontStyle=1;align=center;verticalAlign=top;childLayout=stackLayout;horizontal=1;startSize=26;horizontalStack=0;resizeParent=1;resizeParentMax=0;resizeLast=0;collapsible=1;marginBottom=0;whiteSpace=wrap;html=1;fillColor=#d5e8d4;strokeColor=#82b366;" parent="wWRGcco-_Qgq0vjqzlyI-8" vertex="1">
          <mxGeometry x="85.88" y="47.61904761904761" width="240" height="165.04761904761904" as="geometry" />
        </mxCell>
        <mxCell id="1__zICVQzKlzmBsEgXCl-69" value="+ image: JPG file&lt;br&gt;+ saved_model: .pt file&lt;br&gt;+ detected_objects[]: json file&lt;br&gt;&lt;span style=&quot;&quot;&gt;&lt;span style=&quot;white-space: pre;&quot;&gt;&amp;nbsp;&amp;nbsp;&amp;nbsp;&amp;nbsp;&lt;/span&gt;&lt;/span&gt;+ coordinates[]: float array&lt;br&gt;&lt;span style=&quot;white-space: pre;&quot;&gt; &lt;/span&gt;+ [x, y, width, height]: float&amp;nbsp;&lt;br&gt;&lt;span style=&quot;&quot;&gt;&lt;span style=&quot;white-space: pre;&quot;&gt;&amp;nbsp;&amp;nbsp;&amp;nbsp;&amp;nbsp;&lt;/span&gt;&lt;/span&gt;+ class: String" style="text;strokeColor=none;fillColor=none;align=left;verticalAlign=top;spacingLeft=4;spacingRight=4;overflow=hidden;rotatable=0;points=[[0,0.5],[1,0.5]];portConstraint=eastwest;whiteSpace=wrap;html=1;" parent="1__zICVQzKlzmBsEgXCl-68" vertex="1">
          <mxGeometry y="26" width="240" height="99.04761904761904" as="geometry" />
        </mxCell>
        <mxCell id="1__zICVQzKlzmBsEgXCl-70" value="" style="line;strokeWidth=1;fillColor=none;align=left;verticalAlign=middle;spacingTop=-1;spacingLeft=3;spacingRight=3;rotatable=0;labelPosition=right;points=[];portConstraint=eastwest;strokeColor=inherit;" parent="1__zICVQzKlzmBsEgXCl-68" vertex="1">
          <mxGeometry y="125.04761904761904" width="240" height="9.411764705882353" as="geometry" />
        </mxCell>
        <mxCell id="1__zICVQzKlzmBsEgXCl-71" value="+ saved_model.detect(image)" style="text;strokeColor=none;fillColor=none;align=left;verticalAlign=top;spacingLeft=4;spacingRight=4;overflow=hidden;rotatable=0;points=[[0,0.5],[1,0.5]];portConstraint=eastwest;whiteSpace=wrap;html=1;" parent="1__zICVQzKlzmBsEgXCl-68" vertex="1">
          <mxGeometry y="134.45938375350138" width="240" height="30.588235294117645" as="geometry" />
        </mxCell>
        <mxCell id="1__zICVQzKlzmBsEgXCl-72" value="Image Processing" style="swimlane;fontStyle=1;align=center;verticalAlign=top;childLayout=stackLayout;horizontal=1;startSize=26;horizontalStack=0;resizeParent=1;resizeParentMax=0;resizeLast=0;collapsible=1;marginBottom=0;whiteSpace=wrap;html=1;fillColor=#d5e8d4;strokeColor=#82b366;" parent="wWRGcco-_Qgq0vjqzlyI-8" vertex="1">
          <mxGeometry x="77.06" y="228.57142857142856" width="265.88" height="165.04761904761904" as="geometry" />
        </mxCell>
        <mxCell id="1__zICVQzKlzmBsEgXCl-73" value="+ image: JPG file&lt;br&gt;+ detected_objects[]: json file&lt;br&gt;&lt;span style=&quot;&quot;&gt;&lt;span style=&quot;white-space: pre;&quot;&gt;&amp;nbsp;&amp;nbsp;&amp;nbsp;&amp;nbsp;&lt;/span&gt;&lt;/span&gt;+ coordinates[]: float array&lt;br&gt;&lt;span style=&quot;white-space: pre;&quot;&gt; &lt;/span&gt;+ [x, y, width, height]: float&amp;nbsp;&lt;br&gt;&lt;span style=&quot;&quot;&gt;&lt;span style=&quot;white-space: pre;&quot;&gt;&amp;nbsp;&amp;nbsp;&amp;nbsp;&amp;nbsp;&lt;/span&gt;&lt;/span&gt;+ class: String&lt;br&gt;+ cropped_images[]: JPG files" style="text;strokeColor=none;fillColor=none;align=left;verticalAlign=top;spacingLeft=4;spacingRight=4;overflow=hidden;rotatable=0;points=[[0,0.5],[1,0.5]];portConstraint=eastwest;whiteSpace=wrap;html=1;" parent="1__zICVQzKlzmBsEgXCl-72" vertex="1">
          <mxGeometry y="26" width="265.88" height="99.04761904761904" as="geometry" />
        </mxCell>
        <mxCell id="1__zICVQzKlzmBsEgXCl-74" value="" style="line;strokeWidth=1;fillColor=none;align=left;verticalAlign=middle;spacingTop=-1;spacingLeft=3;spacingRight=3;rotatable=0;labelPosition=right;points=[];portConstraint=eastwest;strokeColor=inherit;" parent="1__zICVQzKlzmBsEgXCl-72" vertex="1">
          <mxGeometry y="125.04761904761904" width="265.88" height="9.411764705882353" as="geometry" />
        </mxCell>
        <mxCell id="1__zICVQzKlzmBsEgXCl-75" value="+ crop(image, detected_objects.coordinates)" style="text;strokeColor=none;fillColor=none;align=left;verticalAlign=top;spacingLeft=4;spacingRight=4;overflow=hidden;rotatable=0;points=[[0,0.5],[1,0.5]];portConstraint=eastwest;whiteSpace=wrap;html=1;" parent="1__zICVQzKlzmBsEgXCl-72" vertex="1">
          <mxGeometry y="134.45938375350138" width="265.88" height="30.588235294117645" as="geometry" />
        </mxCell>
        <mxCell id="1__zICVQzKlzmBsEgXCl-77" value="OCR Text Extraction" style="swimlane;fontStyle=1;align=center;verticalAlign=top;childLayout=stackLayout;horizontal=1;startSize=26;horizontalStack=0;resizeParent=1;resizeParentMax=0;resizeLast=0;collapsible=1;marginBottom=0;whiteSpace=wrap;html=1;fillColor=#d5e8d4;strokeColor=#82b366;" parent="wWRGcco-_Qgq0vjqzlyI-8" vertex="1">
          <mxGeometry x="77.06" y="409.5238095238095" width="265.88" height="125.04985994397758" as="geometry" />
        </mxCell>
        <mxCell id="1__zICVQzKlzmBsEgXCl-78" value="+ ocr_model: EasyOCR model&lt;br&gt;+ cropped_images[]: JPG files&lt;br&gt;+ data: pandas DataFrame" style="text;strokeColor=none;fillColor=none;align=left;verticalAlign=top;spacingLeft=4;spacingRight=4;overflow=hidden;rotatable=0;points=[[0,0.5],[1,0.5]];portConstraint=eastwest;whiteSpace=wrap;html=1;" parent="1__zICVQzKlzmBsEgXCl-77" vertex="1">
          <mxGeometry y="26" width="265.88" height="60.95238095238095" as="geometry" />
        </mxCell>
        <mxCell id="1__zICVQzKlzmBsEgXCl-79" value="" style="line;strokeWidth=1;fillColor=none;align=left;verticalAlign=middle;spacingTop=-1;spacingLeft=3;spacingRight=3;rotatable=0;labelPosition=right;points=[];portConstraint=eastwest;strokeColor=inherit;" parent="1__zICVQzKlzmBsEgXCl-77" vertex="1">
          <mxGeometry y="86.95238095238095" width="265.88" height="9.411764705882353" as="geometry" />
        </mxCell>
        <mxCell id="1__zICVQzKlzmBsEgXCl-80" value="+ ocr_model(cropped_images[])" style="text;strokeColor=none;fillColor=none;align=left;verticalAlign=top;spacingLeft=4;spacingRight=4;overflow=hidden;rotatable=0;points=[[0,0.5],[1,0.5]];portConstraint=eastwest;whiteSpace=wrap;html=1;" parent="1__zICVQzKlzmBsEgXCl-77" vertex="1">
          <mxGeometry y="96.3641456582633" width="265.88" height="28.685714285714287" as="geometry" />
        </mxCell>
        <mxCell id="VNDOCuLY1nb_13rOftg5-11" style="edgeStyle=orthogonalEdgeStyle;rounded=0;orthogonalLoop=1;jettySize=auto;html=1;exitX=0;exitY=0.5;exitDx=0;exitDy=0;entryX=0;entryY=0.5;entryDx=0;entryDy=0;" parent="wWRGcco-_Qgq0vjqzlyI-8" source="1__zICVQzKlzmBsEgXCl-75" target="1__zICVQzKlzmBsEgXCl-78" edge="1">
          <mxGeometry relative="1" as="geometry" />
        </mxCell>
        <mxCell id="wWRGcco-_Qgq0vjqzlyI-15" value="" style="group;fillColor=#d5e8d4;strokeColor=#82b366;fillStyle=solid;fontSize=14;container=0;" parent="1" vertex="1" connectable="0">
          <mxGeometry x="670" y="260" width="310" height="440" as="geometry" />
        </mxCell>
        <mxCell id="wWRGcco-_Qgq0vjqzlyI-20" style="edgeStyle=orthogonalEdgeStyle;rounded=0;orthogonalLoop=1;jettySize=auto;html=1;exitX=0.5;exitY=1;exitDx=0;exitDy=0;exitPerimeter=0;fontSize=14;entryX=0.001;entryY=0.143;entryDx=0;entryDy=0;entryPerimeter=0;" parent="1" source="wWRGcco-_Qgq0vjqzlyI-21" target="1__zICVQzKlzmBsEgXCl-69" edge="1">
          <mxGeometry relative="1" as="geometry" />
        </mxCell>
        <mxCell id="wWRGcco-_Qgq0vjqzlyI-21" value="image: JPG file" style="shape=note;whiteSpace=wrap;html=1;backgroundOutline=1;darkOpacity=0.05;fillColor=#f8cecc;strokeColor=#b85450;fontSize=14;" parent="1" vertex="1">
          <mxGeometry x="150" y="61.18" width="70" height="90" as="geometry" />
        </mxCell>
        <mxCell id="wWRGcco-_Qgq0vjqzlyI-22" style="edgeStyle=orthogonalEdgeStyle;rounded=0;orthogonalLoop=1;jettySize=auto;html=1;entryX=1;entryY=0.5;entryDx=0;entryDy=0;fontSize=14;" parent="1" source="wWRGcco-_Qgq0vjqzlyI-23" target="wWRGcco-_Qgq0vjqzlyI-4" edge="1">
          <mxGeometry relative="1" as="geometry">
            <mxPoint x="730" y="130.0044444444443" as="targetPoint" />
          </mxGeometry>
        </mxCell>
        <mxCell id="wWRGcco-_Qgq0vjqzlyI-23" value="&lt;br&gt;report: String" style="shape=note;whiteSpace=wrap;html=1;backgroundOutline=1;darkOpacity=0.05;fillColor=#f8cecc;strokeColor=#b85450;fontSize=14;" parent="1" vertex="1">
          <mxGeometry x="980" y="50" width="70" height="90" as="geometry" />
        </mxCell>
        <mxCell id="wWRGcco-_Qgq0vjqzlyI-25" value="&lt;font style=&quot;font-size: 12px;&quot;&gt;data: Dataframe&lt;/font&gt;" style="shape=cube;whiteSpace=wrap;html=1;boundedLbl=1;backgroundOutline=1;darkOpacity=0.05;darkOpacity2=0.1;fillColor=#f8cecc;strokeColor=#b85450;fontSize=14;" parent="1" vertex="1">
          <mxGeometry x="570" y="420" width="90" height="60" as="geometry" />
        </mxCell>
        <mxCell id="wWRGcco-_Qgq0vjqzlyI-29" value="&lt;b style=&quot;font-size: 14px;&quot;&gt;&lt;font style=&quot;font-size: 14px;&quot;&gt;CLASS/OBJECT DIAGRAM&lt;/font&gt;&lt;/b&gt;" style="text;strokeColor=none;align=center;fillColor=none;html=1;verticalAlign=middle;whiteSpace=wrap;rounded=0;fontStyle=4;fontSize=14;" parent="1" vertex="1">
          <mxGeometry x="155" y="-90" width="290" height="30" as="geometry" />
        </mxCell>
        <mxCell id="GKp664hPOYIqAHE53bwp-34" style="edgeStyle=orthogonalEdgeStyle;rounded=0;orthogonalLoop=1;jettySize=auto;html=1;fontSize=14;" parent="1" source="GKp664hPOYIqAHE53bwp-32" target="1__zICVQzKlzmBsEgXCl-69" edge="1">
          <mxGeometry relative="1" as="geometry">
            <mxPoint x="200" y="350" as="targetPoint" />
            <Array as="points">
              <mxPoint x="100" y="845" />
              <mxPoint x="100" y="340" />
            </Array>
          </mxGeometry>
        </mxCell>
        <mxCell id="GKp664hPOYIqAHE53bwp-32" value="saved_model" style="shape=cube;whiteSpace=wrap;html=1;boundedLbl=1;backgroundOutline=1;darkOpacity=0.05;darkOpacity2=0.1;fillColor=#f8cecc;strokeColor=#b85450;fontSize=14;" parent="1" vertex="1">
          <mxGeometry x="-164.2" y="820" width="130" height="50" as="geometry" />
        </mxCell>
        <mxCell id="1__zICVQzKlzmBsEgXCl-36" value="&lt;u style=&quot;font-size: 14px;&quot;&gt;&lt;br style=&quot;font-size: 14px;&quot;&gt;MODEL TRAINING&lt;/u&gt;" style="rounded=0;whiteSpace=wrap;html=1;verticalAlign=top;fontSize=14;" parent="1" vertex="1">
          <mxGeometry x="-590" y="70" width="670" height="690" as="geometry" />
        </mxCell>
        <mxCell id="VNDOCuLY1nb_13rOftg5-25" style="edgeStyle=orthogonalEdgeStyle;rounded=0;orthogonalLoop=1;jettySize=auto;html=1;entryX=0.5;entryY=0;entryDx=0;entryDy=0;" parent="1" source="1__zICVQzKlzmBsEgXCl-41" target="1__zICVQzKlzmBsEgXCl-44" edge="1">
          <mxGeometry relative="1" as="geometry" />
        </mxCell>
        <mxCell id="1__zICVQzKlzmBsEgXCl-41" value="Report Collection" style="swimlane;fontStyle=1;align=center;verticalAlign=top;childLayout=stackLayout;horizontal=1;startSize=26;horizontalStack=0;resizeParent=1;resizeParentMax=0;resizeLast=0;collapsible=1;marginBottom=0;whiteSpace=wrap;html=1;fillColor=#d5e8d4;strokeColor=#82b366;" parent="1" vertex="1">
          <mxGeometry x="-506.36" y="159.99884057971016" width="225" height="68.20289855072464" as="geometry" />
        </mxCell>
        <mxCell id="1__zICVQzKlzmBsEgXCl-42" value="+ all_reports[]: JPG files" style="text;strokeColor=none;fillColor=none;align=left;verticalAlign=top;spacingLeft=4;spacingRight=4;overflow=hidden;rotatable=0;points=[[0,0.5],[1,0.5]];portConstraint=eastwest;whiteSpace=wrap;html=1;" parent="1__zICVQzKlzmBsEgXCl-41" vertex="1">
          <mxGeometry y="26" width="225" height="31.652173913043477" as="geometry" />
        </mxCell>
        <mxCell id="1__zICVQzKlzmBsEgXCl-43" value="" style="line;strokeWidth=1;fillColor=none;align=left;verticalAlign=middle;spacingTop=-1;spacingLeft=3;spacingRight=3;rotatable=0;labelPosition=right;points=[];portConstraint=eastwest;strokeColor=inherit;" parent="1__zICVQzKlzmBsEgXCl-41" vertex="1">
          <mxGeometry y="57.65217391304348" width="225" height="10.55072463768116" as="geometry" />
        </mxCell>
        <mxCell id="VNDOCuLY1nb_13rOftg5-22" style="edgeStyle=orthogonalEdgeStyle;rounded=0;orthogonalLoop=1;jettySize=auto;html=1;exitX=0;exitY=0.75;exitDx=0;exitDy=0;entryX=-0.008;entryY=0.221;entryDx=0;entryDy=0;entryPerimeter=0;" parent="1" source="1__zICVQzKlzmBsEgXCl-44" target="1__zICVQzKlzmBsEgXCl-48" edge="1">
          <mxGeometry relative="1" as="geometry" />
        </mxCell>
        <mxCell id="1__zICVQzKlzmBsEgXCl-44" value="Report Selection" style="swimlane;fontStyle=1;align=center;verticalAlign=top;childLayout=stackLayout;horizontal=1;startSize=26;horizontalStack=0;resizeParent=1;resizeParentMax=0;resizeLast=0;collapsible=1;marginBottom=0;whiteSpace=wrap;html=1;fillColor=#d5e8d4;strokeColor=#82b366;" parent="1" vertex="1">
          <mxGeometry x="-511.36" y="248.2" width="235" height="68.20289855072464" as="geometry" />
        </mxCell>
        <mxCell id="1__zICVQzKlzmBsEgXCl-45" value="+ selected_reports[]: JPG files" style="text;strokeColor=none;fillColor=none;align=left;verticalAlign=top;spacingLeft=4;spacingRight=4;overflow=hidden;rotatable=0;points=[[0,0.5],[1,0.5]];portConstraint=eastwest;whiteSpace=wrap;html=1;" parent="1__zICVQzKlzmBsEgXCl-44" vertex="1">
          <mxGeometry y="26" width="235" height="31.652173913043477" as="geometry" />
        </mxCell>
        <mxCell id="1__zICVQzKlzmBsEgXCl-46" value="" style="line;strokeWidth=1;fillColor=none;align=left;verticalAlign=middle;spacingTop=-1;spacingLeft=3;spacingRight=3;rotatable=0;labelPosition=right;points=[];portConstraint=eastwest;strokeColor=inherit;" parent="1__zICVQzKlzmBsEgXCl-44" vertex="1">
          <mxGeometry y="57.65217391304348" width="235" height="10.55072463768116" as="geometry" />
        </mxCell>
        <mxCell id="1__zICVQzKlzmBsEgXCl-47" value="Augmentation &amp;amp; Preprocessing" style="swimlane;fontStyle=1;align=center;verticalAlign=top;childLayout=stackLayout;horizontal=1;startSize=26;horizontalStack=0;resizeParent=1;resizeParentMax=0;resizeLast=0;collapsible=1;marginBottom=0;whiteSpace=wrap;html=1;fillColor=#d5e8d4;strokeColor=#82b366;" parent="1" vertex="1">
          <mxGeometry x="-518.3" y="340.00333333333333" width="248.88" height="202.78324808184144" as="geometry" />
        </mxCell>
        <mxCell id="1__zICVQzKlzmBsEgXCl-48" value="+ selected_reports[]: JPG files&lt;br&gt;+ augmented_report[]: JPG files&lt;br&gt;+ preprocessed_reports[]: JPG files" style="text;strokeColor=none;fillColor=none;align=left;verticalAlign=top;spacingLeft=4;spacingRight=4;overflow=hidden;rotatable=0;points=[[0,0.5],[1,0.5]];portConstraint=eastwest;whiteSpace=wrap;html=1;" parent="1__zICVQzKlzmBsEgXCl-47" vertex="1">
          <mxGeometry y="26" width="248.88" height="64" as="geometry" />
        </mxCell>
        <mxCell id="1__zICVQzKlzmBsEgXCl-49" value="" style="line;strokeWidth=1;fillColor=none;align=left;verticalAlign=middle;spacingTop=-1;spacingLeft=3;spacingRight=3;rotatable=0;labelPosition=right;points=[];portConstraint=eastwest;strokeColor=inherit;" parent="1__zICVQzKlzmBsEgXCl-47" vertex="1">
          <mxGeometry y="90" width="248.88" height="13.033248081841434" as="geometry" />
        </mxCell>
        <mxCell id="1__zICVQzKlzmBsEgXCl-50" value="+ augment(selected_reports[])&lt;br&gt;+ preprocess(augmented_reports[])&lt;br&gt;&lt;span style=&quot;white-space: pre;&quot;&gt; &lt;/span&gt;+rotation()&lt;br&gt;&lt;span style=&quot;white-space: pre;&quot;&gt; &lt;/span&gt;+scaling()&lt;br&gt;&lt;span style=&quot;white-space: pre;&quot;&gt; &lt;/span&gt;+translation()&lt;br&gt;&lt;span style=&quot;white-space: pre;&quot;&gt; &lt;/span&gt;+noise()" style="text;strokeColor=none;fillColor=none;align=left;verticalAlign=top;spacingLeft=4;spacingRight=4;overflow=hidden;rotatable=0;points=[[0,0.5],[1,0.5]];portConstraint=eastwest;whiteSpace=wrap;html=1;" parent="1__zICVQzKlzmBsEgXCl-47" vertex="1">
          <mxGeometry y="103.03324808184144" width="248.88" height="99.75" as="geometry" />
        </mxCell>
        <mxCell id="1__zICVQzKlzmBsEgXCl-51" value="Annotation" style="swimlane;fontStyle=1;align=center;verticalAlign=top;childLayout=stackLayout;horizontal=1;startSize=26;horizontalStack=0;resizeParent=1;resizeParentMax=0;resizeLast=0;collapsible=1;marginBottom=0;whiteSpace=wrap;html=1;fillColor=#d5e8d4;strokeColor=#82b366;" parent="1" vertex="1">
          <mxGeometry x="-513.86" y="560" width="240" height="152" as="geometry" />
        </mxCell>
        <mxCell id="1__zICVQzKlzmBsEgXCl-52" value="+ preprocesses_reports[]: JPG files&lt;br&gt;+ annotations[]: json files&lt;br&gt;&lt;span style=&quot;&quot;&gt;&lt;span style=&quot;white-space: pre;&quot;&gt;&amp;nbsp;&amp;nbsp;&amp;nbsp;&amp;nbsp;&lt;/span&gt;&lt;/span&gt;+ coordinates[]: float array&lt;br&gt;&lt;span style=&quot;white-space: pre;&quot;&gt; &lt;/span&gt;+ [x, y, width, height]: float&amp;nbsp;&lt;br&gt;&lt;span style=&quot;&quot;&gt;&lt;span style=&quot;white-space: pre;&quot;&gt;&amp;nbsp;&amp;nbsp;&amp;nbsp;&amp;nbsp;&lt;/span&gt;&lt;/span&gt;+ class: String" style="text;strokeColor=none;fillColor=none;align=left;verticalAlign=top;spacingLeft=4;spacingRight=4;overflow=hidden;rotatable=0;points=[[0,0.5],[1,0.5]];portConstraint=eastwest;whiteSpace=wrap;html=1;" parent="1__zICVQzKlzmBsEgXCl-51" vertex="1">
          <mxGeometry y="26" width="240" height="84" as="geometry" />
        </mxCell>
        <mxCell id="1__zICVQzKlzmBsEgXCl-53" value="" style="line;strokeWidth=1;fillColor=none;align=left;verticalAlign=middle;spacingTop=-1;spacingLeft=3;spacingRight=3;rotatable=0;labelPosition=right;points=[];portConstraint=eastwest;strokeColor=inherit;" parent="1__zICVQzKlzmBsEgXCl-51" vertex="1">
          <mxGeometry y="110" width="240" height="9.882352941176471" as="geometry" />
        </mxCell>
        <mxCell id="1__zICVQzKlzmBsEgXCl-54" value="+ annotate(preprocessed_reports[])" style="text;strokeColor=none;fillColor=none;align=left;verticalAlign=top;spacingLeft=4;spacingRight=4;overflow=hidden;rotatable=0;points=[[0,0.5],[1,0.5]];portConstraint=eastwest;whiteSpace=wrap;html=1;" parent="1__zICVQzKlzmBsEgXCl-51" vertex="1">
          <mxGeometry y="119.88235294117646" width="240" height="32.11764705882353" as="geometry" />
        </mxCell>
        <mxCell id="1__zICVQzKlzmBsEgXCl-55" value="Model Training" style="swimlane;fontStyle=1;align=center;verticalAlign=top;childLayout=stackLayout;horizontal=1;startSize=26;horizontalStack=0;resizeParent=1;resizeParentMax=0;resizeLast=0;collapsible=1;marginBottom=0;whiteSpace=wrap;html=1;fillColor=#d5e8d4;strokeColor=#82b366;" parent="1" vertex="1">
          <mxGeometry x="-209.99999999999994" y="160" width="221.6" height="122" as="geometry" />
        </mxCell>
        <mxCell id="1__zICVQzKlzmBsEgXCl-56" value="+ model: YOLOv8 model&lt;br&gt;+ annotations[]: json files&lt;br&gt;+ trained_model: YOLOv8 model" style="text;strokeColor=none;fillColor=none;align=left;verticalAlign=top;spacingLeft=4;spacingRight=4;overflow=hidden;rotatable=0;points=[[0,0.5],[1,0.5]];portConstraint=eastwest;whiteSpace=wrap;html=1;" parent="1__zICVQzKlzmBsEgXCl-55" vertex="1">
          <mxGeometry y="26" width="221.6" height="54" as="geometry" />
        </mxCell>
        <mxCell id="1__zICVQzKlzmBsEgXCl-57" value="" style="line;strokeWidth=1;fillColor=none;align=left;verticalAlign=middle;spacingTop=-1;spacingLeft=3;spacingRight=3;rotatable=0;labelPosition=right;points=[];portConstraint=eastwest;strokeColor=inherit;" parent="1__zICVQzKlzmBsEgXCl-55" vertex="1">
          <mxGeometry y="80" width="221.6" height="9.882352941176471" as="geometry" />
        </mxCell>
        <mxCell id="1__zICVQzKlzmBsEgXCl-58" value="+ model.train(annotations[])" style="text;strokeColor=none;fillColor=none;align=left;verticalAlign=top;spacingLeft=4;spacingRight=4;overflow=hidden;rotatable=0;points=[[0,0.5],[1,0.5]];portConstraint=eastwest;whiteSpace=wrap;html=1;" parent="1__zICVQzKlzmBsEgXCl-55" vertex="1">
          <mxGeometry y="89.88235294117646" width="221.6" height="32.11764705882353" as="geometry" />
        </mxCell>
        <mxCell id="VNDOCuLY1nb_13rOftg5-30" style="edgeStyle=orthogonalEdgeStyle;rounded=0;orthogonalLoop=1;jettySize=auto;html=1;entryX=0.5;entryY=0;entryDx=0;entryDy=0;" parent="1" source="1__zICVQzKlzmBsEgXCl-59" target="1__zICVQzKlzmBsEgXCl-63" edge="1">
          <mxGeometry relative="1" as="geometry" />
        </mxCell>
        <mxCell id="1__zICVQzKlzmBsEgXCl-59" value="Model Testing" style="swimlane;fontStyle=1;align=center;verticalAlign=top;childLayout=stackLayout;horizontal=1;startSize=26;horizontalStack=0;resizeParent=1;resizeParentMax=0;resizeLast=0;collapsible=1;marginBottom=0;whiteSpace=wrap;html=1;fillColor=#d5e8d4;strokeColor=#82b366;" parent="1" vertex="1">
          <mxGeometry x="-209.99999999999994" y="300" width="221.6" height="160.00235294117647" as="geometry" />
        </mxCell>
        <mxCell id="1__zICVQzKlzmBsEgXCl-60" value="+ trained_model: YOLOv8 model&lt;br&gt;+ results []&lt;br&gt;&lt;span style=&quot;white-space: pre;&quot;&gt; &lt;/span&gt;+precision: float&lt;br&gt;&lt;span style=&quot;white-space: pre;&quot;&gt; &lt;/span&gt;+recall: float&lt;br&gt;&lt;span style=&quot;white-space: pre;&quot;&gt; &lt;/span&gt;+f1: float&lt;br&gt;&lt;span style=&quot;white-space: pre;&quot;&gt; &lt;/span&gt;+accuracy: float" style="text;strokeColor=none;fillColor=none;align=left;verticalAlign=top;spacingLeft=4;spacingRight=4;overflow=hidden;rotatable=0;points=[[0,0.5],[1,0.5]];portConstraint=eastwest;whiteSpace=wrap;html=1;" parent="1__zICVQzKlzmBsEgXCl-59" vertex="1">
          <mxGeometry y="26" width="221.6" height="94" as="geometry" />
        </mxCell>
        <mxCell id="1__zICVQzKlzmBsEgXCl-61" value="" style="line;strokeWidth=1;fillColor=none;align=left;verticalAlign=middle;spacingTop=-1;spacingLeft=3;spacingRight=3;rotatable=0;labelPosition=right;points=[];portConstraint=eastwest;strokeColor=inherit;" parent="1__zICVQzKlzmBsEgXCl-59" vertex="1">
          <mxGeometry y="120" width="221.6" height="9.882352941176471" as="geometry" />
        </mxCell>
        <mxCell id="1__zICVQzKlzmBsEgXCl-62" value="+ model.test(trained_model)" style="text;strokeColor=none;fillColor=none;align=left;verticalAlign=top;spacingLeft=4;spacingRight=4;overflow=hidden;rotatable=0;points=[[0,0.5],[1,0.5]];portConstraint=eastwest;whiteSpace=wrap;html=1;" parent="1__zICVQzKlzmBsEgXCl-59" vertex="1">
          <mxGeometry y="129.88235294117646" width="221.6" height="30.12" as="geometry" />
        </mxCell>
        <mxCell id="1__zICVQzKlzmBsEgXCl-67" style="edgeStyle=orthogonalEdgeStyle;rounded=0;orthogonalLoop=1;jettySize=auto;html=1;exitX=0.5;exitY=1;exitDx=0;exitDy=0;entryX=0.502;entryY=0.057;entryDx=0;entryDy=0;entryPerimeter=0;" parent="1" source="1__zICVQzKlzmBsEgXCl-63" target="GKp664hPOYIqAHE53bwp-32" edge="1">
          <mxGeometry relative="1" as="geometry" />
        </mxCell>
        <mxCell id="1__zICVQzKlzmBsEgXCl-63" value="Model Saving" style="swimlane;fontStyle=1;align=center;verticalAlign=top;childLayout=stackLayout;horizontal=1;startSize=26;horizontalStack=0;resizeParent=1;resizeParentMax=0;resizeLast=0;collapsible=1;marginBottom=0;whiteSpace=wrap;html=1;fillColor=#d5e8d4;strokeColor=#82b366;" parent="1" vertex="1">
          <mxGeometry x="-209.99999999999994" y="480" width="221.6" height="122" as="geometry" />
        </mxCell>
        <mxCell id="1__zICVQzKlzmBsEgXCl-64" value="+ trained_model: YOLOv8 model&lt;br&gt;+ saved_model: .pt file" style="text;strokeColor=none;fillColor=none;align=left;verticalAlign=top;spacingLeft=4;spacingRight=4;overflow=hidden;rotatable=0;points=[[0,0.5],[1,0.5]];portConstraint=eastwest;whiteSpace=wrap;html=1;" parent="1__zICVQzKlzmBsEgXCl-63" vertex="1">
          <mxGeometry y="26" width="221.6" height="54" as="geometry" />
        </mxCell>
        <mxCell id="1__zICVQzKlzmBsEgXCl-65" value="" style="line;strokeWidth=1;fillColor=none;align=left;verticalAlign=middle;spacingTop=-1;spacingLeft=3;spacingRight=3;rotatable=0;labelPosition=right;points=[];portConstraint=eastwest;strokeColor=inherit;" parent="1__zICVQzKlzmBsEgXCl-63" vertex="1">
          <mxGeometry y="80" width="221.6" height="9.882352941176471" as="geometry" />
        </mxCell>
        <mxCell id="1__zICVQzKlzmBsEgXCl-66" value="+ trained_model.save()" style="text;strokeColor=none;fillColor=none;align=left;verticalAlign=top;spacingLeft=4;spacingRight=4;overflow=hidden;rotatable=0;points=[[0,0.5],[1,0.5]];portConstraint=eastwest;whiteSpace=wrap;html=1;" parent="1__zICVQzKlzmBsEgXCl-63" vertex="1">
          <mxGeometry y="89.88235294117646" width="221.6" height="32.11764705882353" as="geometry" />
        </mxCell>
        <mxCell id="VNDOCuLY1nb_13rOftg5-3" style="edgeStyle=orthogonalEdgeStyle;rounded=0;orthogonalLoop=1;jettySize=auto;html=1;exitX=0.5;exitY=1;exitDx=0;exitDy=0;entryX=1.001;entryY=0.576;entryDx=0;entryDy=0;entryPerimeter=0;" parent="1" source="wWRGcco-_Qgq0vjqzlyI-16" target="wWRGcco-_Qgq0vjqzlyI-23" edge="1">
          <mxGeometry relative="1" as="geometry" />
        </mxCell>
        <mxCell id="wWRGcco-_Qgq0vjqzlyI-16" value="&lt;u style=&quot;font-size: 14px;&quot;&gt;&lt;br style=&quot;font-size: 14px;&quot;&gt;REPORT GENERATION&lt;/u&gt;" style="rounded=0;whiteSpace=wrap;html=1;verticalAlign=top;fontSize=14;" parent="1" vertex="1">
          <mxGeometry x="670" y="260" width="340" height="470" as="geometry" />
        </mxCell>
        <mxCell id="1__zICVQzKlzmBsEgXCl-81" value="Calculations" style="swimlane;fontStyle=1;align=center;verticalAlign=top;childLayout=stackLayout;horizontal=1;startSize=26;horizontalStack=0;resizeParent=1;resizeParentMax=0;resizeLast=0;collapsible=1;marginBottom=0;whiteSpace=wrap;html=1;fillColor=#d5e8d4;strokeColor=#82b366;" parent="1" vertex="1">
          <mxGeometry x="703.91" y="324.0909523809524" width="272.18" height="175.6059324630753" as="geometry" />
        </mxCell>
        <mxCell id="1__zICVQzKlzmBsEgXCl-82" value="+ data: Dataframe&lt;br&gt;+ normal_ranges[]: Dataframes&lt;br&gt;+ abnormal_values[]:&lt;br&gt;&lt;blockquote style=&quot;margin: 0 0 0 40px; border: none; padding: 0px;&quot;&gt;+ deviation_value: float&lt;br&gt;+ deviation_percent: float&lt;br&gt;+ deviation_type: String&lt;/blockquote&gt;" style="text;strokeColor=none;fillColor=none;align=left;verticalAlign=top;spacingLeft=4;spacingRight=4;overflow=hidden;rotatable=0;points=[[0,0.5],[1,0.5]];portConstraint=eastwest;whiteSpace=wrap;html=1;" parent="1__zICVQzKlzmBsEgXCl-81" vertex="1">
          <mxGeometry y="26" width="272.18" height="106.56860942575227" as="geometry" />
        </mxCell>
        <mxCell id="1__zICVQzKlzmBsEgXCl-83" value="" style="line;strokeWidth=1;fillColor=none;align=left;verticalAlign=middle;spacingTop=-1;spacingLeft=3;spacingRight=3;rotatable=0;labelPosition=right;points=[];portConstraint=eastwest;strokeColor=inherit;" parent="1__zICVQzKlzmBsEgXCl-81" vertex="1">
          <mxGeometry y="132.56860942575227" width="272.18" height="10.126428949958362" as="geometry" />
        </mxCell>
        <mxCell id="1__zICVQzKlzmBsEgXCl-84" value="+ calculate(data, normal_range)" style="text;strokeColor=none;fillColor=none;align=left;verticalAlign=top;spacingLeft=4;spacingRight=4;overflow=hidden;rotatable=0;points=[[0,0.5],[1,0.5]];portConstraint=eastwest;whiteSpace=wrap;html=1;" parent="1__zICVQzKlzmBsEgXCl-81" vertex="1">
          <mxGeometry y="142.69503837571062" width="272.18" height="32.910894087364674" as="geometry" />
        </mxCell>
        <mxCell id="iANV8BUI1NOtJ6r1Z0US-1" value="Causes &amp;amp; Solutions Suggestions" style="swimlane;fontStyle=1;align=center;verticalAlign=top;childLayout=stackLayout;horizontal=1;startSize=26;horizontalStack=0;resizeParent=1;resizeParentMax=0;resizeLast=0;collapsible=1;marginBottom=0;whiteSpace=wrap;html=1;fillColor=#d5e8d4;strokeColor=#82b366;" parent="1" vertex="1">
          <mxGeometry x="703.91" y="512.662380952381" width="272.18" height="187.33408599475825" as="geometry" />
        </mxCell>
        <mxCell id="iANV8BUI1NOtJ6r1Z0US-2" value="+ data: Dataframe&lt;br&gt;+ abnormal_values[]:&lt;br&gt;+ report: String&lt;br&gt;+ causes_solutions: Dataframes&lt;br&gt;&lt;blockquote style=&quot;margin: 0 0 0 40px; border: none; padding: 0px;&quot;&gt;+ deviation_value: float&lt;br&gt;+ deviation_percent: float&lt;br&gt;+ deviation_type: String&lt;/blockquote&gt;&lt;blockquote style=&quot;margin: 0 0 0 40px; border: none; padding: 0px;&quot;&gt;&lt;br&gt;&lt;/blockquote&gt;" style="text;strokeColor=none;fillColor=none;align=left;verticalAlign=top;spacingLeft=4;spacingRight=4;overflow=hidden;rotatable=0;points=[[0,0.5],[1,0.5]];portConstraint=eastwest;whiteSpace=wrap;html=1;" parent="iANV8BUI1NOtJ6r1Z0US-1" vertex="1">
          <mxGeometry y="26" width="272.18" height="106.56860942575227" as="geometry" />
        </mxCell>
        <mxCell id="iANV8BUI1NOtJ6r1Z0US-3" value="" style="line;strokeWidth=1;fillColor=none;align=left;verticalAlign=middle;spacingTop=-1;spacingLeft=3;spacingRight=3;rotatable=0;labelPosition=right;points=[];portConstraint=eastwest;strokeColor=inherit;" parent="iANV8BUI1NOtJ6r1Z0US-1" vertex="1">
          <mxGeometry y="132.56860942575227" width="272.18" height="10.126428949958362" as="geometry" />
        </mxCell>
        <mxCell id="iANV8BUI1NOtJ6r1Z0US-4" value="+ generateReport(data, abnormal_values[], causes_solutions)" style="text;strokeColor=none;fillColor=none;align=left;verticalAlign=top;spacingLeft=4;spacingRight=4;overflow=hidden;rotatable=0;points=[[0,0.5],[1,0.5]];portConstraint=eastwest;whiteSpace=wrap;html=1;" parent="iANV8BUI1NOtJ6r1Z0US-1" vertex="1">
          <mxGeometry y="142.69503837571062" width="272.18" height="44.63904761904762" as="geometry" />
        </mxCell>
        <mxCell id="VNDOCuLY1nb_13rOftg5-8" style="edgeStyle=orthogonalEdgeStyle;rounded=0;orthogonalLoop=1;jettySize=auto;html=1;exitX=0;exitY=0.5;exitDx=0;exitDy=0;entryX=0.994;entryY=0.498;entryDx=0;entryDy=0;entryPerimeter=0;" parent="1" source="1__zICVQzKlzmBsEgXCl-2" target="wWRGcco-_Qgq0vjqzlyI-21" edge="1">
          <mxGeometry relative="1" as="geometry" />
        </mxCell>
        <mxCell id="VNDOCuLY1nb_13rOftg5-13" style="edgeStyle=orthogonalEdgeStyle;rounded=0;orthogonalLoop=1;jettySize=auto;html=1;exitX=1;exitY=0.5;exitDx=0;exitDy=0;entryX=0;entryY=0;entryDx=55;entryDy=60;entryPerimeter=0;" parent="1" source="1__zICVQzKlzmBsEgXCl-80" target="wWRGcco-_Qgq0vjqzlyI-25" edge="1">
          <mxGeometry relative="1" as="geometry" />
        </mxCell>
        <mxCell id="VNDOCuLY1nb_13rOftg5-15" style="edgeStyle=orthogonalEdgeStyle;rounded=0;orthogonalLoop=1;jettySize=auto;html=1;exitX=0;exitY=0;exitDx=35;exitDy=0;exitPerimeter=0;entryX=-0.005;entryY=0.114;entryDx=0;entryDy=0;entryPerimeter=0;" parent="1" source="wWRGcco-_Qgq0vjqzlyI-25" target="1__zICVQzKlzmBsEgXCl-82" edge="1">
          <mxGeometry relative="1" as="geometry" />
        </mxCell>
        <mxCell id="VNDOCuLY1nb_13rOftg5-18" style="edgeStyle=orthogonalEdgeStyle;rounded=0;orthogonalLoop=1;jettySize=auto;html=1;exitX=1;exitY=0.5;exitDx=0;exitDy=0;entryX=1.016;entryY=0.252;entryDx=0;entryDy=0;entryPerimeter=0;" parent="1" source="1__zICVQzKlzmBsEgXCl-84" target="iANV8BUI1NOtJ6r1Z0US-2" edge="1">
          <mxGeometry relative="1" as="geometry" />
        </mxCell>
        <mxCell id="VNDOCuLY1nb_13rOftg5-26" style="edgeStyle=orthogonalEdgeStyle;rounded=0;orthogonalLoop=1;jettySize=auto;html=1;exitX=0;exitY=0.5;exitDx=0;exitDy=0;entryX=0.002;entryY=0.19;entryDx=0;entryDy=0;entryPerimeter=0;" parent="1" source="1__zICVQzKlzmBsEgXCl-50" target="1__zICVQzKlzmBsEgXCl-52" edge="1">
          <mxGeometry relative="1" as="geometry" />
        </mxCell>
        <mxCell id="VNDOCuLY1nb_13rOftg5-27" style="edgeStyle=orthogonalEdgeStyle;rounded=0;orthogonalLoop=1;jettySize=auto;html=1;exitX=1;exitY=0.5;exitDx=0;exitDy=0;" parent="1" source="1__zICVQzKlzmBsEgXCl-54" target="1__zICVQzKlzmBsEgXCl-56" edge="1">
          <mxGeometry relative="1" as="geometry" />
        </mxCell>
        <mxCell id="VNDOCuLY1nb_13rOftg5-28" style="edgeStyle=orthogonalEdgeStyle;rounded=0;orthogonalLoop=1;jettySize=auto;html=1;exitX=1;exitY=0.5;exitDx=0;exitDy=0;entryX=1.009;entryY=0.113;entryDx=0;entryDy=0;entryPerimeter=0;" parent="1" source="1__zICVQzKlzmBsEgXCl-58" target="1__zICVQzKlzmBsEgXCl-60" edge="1">
          <mxGeometry relative="1" as="geometry" />
        </mxCell>
      </root>
    </mxGraphModel>
  </diagram>
  <diagram id="53_jXhPOFhxq9D-aZTxC" name="UseCase Diagram">
    <mxGraphModel dx="1166" dy="690" grid="1" gridSize="10" guides="1" tooltips="1" connect="1" arrows="1" fold="1" page="1" pageScale="1" pageWidth="850" pageHeight="1100" math="0" shadow="0">
      <root>
        <mxCell id="0" />
        <mxCell id="1" parent="0" />
        <mxCell id="P1Pqax5XZkCosQ1yJxeZ-2" value="" style="swimlane;startSize=0;" vertex="1" parent="1">
          <mxGeometry x="170" y="10" width="500" height="650" as="geometry">
            <mxRectangle x="320" y="220" width="50" height="40" as="alternateBounds" />
          </mxGeometry>
        </mxCell>
        <mxCell id="S4QatcUa7ggixsl-GR9r-11" value="" style="edgeStyle=orthogonalEdgeStyle;rounded=0;orthogonalLoop=1;jettySize=auto;html=1;dashed=1;exitX=1;exitY=0.5;exitDx=0;exitDy=0;entryX=0;entryY=0.5;entryDx=0;entryDy=0;" edge="1" parent="P1Pqax5XZkCosQ1yJxeZ-2" source="S4QatcUa7ggixsl-GR9r-4" target="mwSjg3fP-pFxrxpbKHzR-1">
          <mxGeometry relative="1" as="geometry">
            <Array as="points">
              <mxPoint x="240" y="504" />
              <mxPoint x="240" y="564" />
            </Array>
          </mxGeometry>
        </mxCell>
        <mxCell id="P1Pqax5XZkCosQ1yJxeZ-3" value="Upload hematological Report" style="ellipse;whiteSpace=wrap;html=1;" vertex="1" parent="P1Pqax5XZkCosQ1yJxeZ-2">
          <mxGeometry x="60" y="20" width="120" height="80" as="geometry" />
        </mxCell>
        <mxCell id="S4QatcUa7ggixsl-GR9r-4" value="Download Diagnosis" style="ellipse;whiteSpace=wrap;html=1;" vertex="1" parent="P1Pqax5XZkCosQ1yJxeZ-2">
          <mxGeometry x="60" y="464" width="120" height="80" as="geometry" />
        </mxCell>
        <mxCell id="S4QatcUa7ggixsl-GR9r-6" value="" style="endArrow=classic;html=1;rounded=0;exitX=1;exitY=0.5;exitDx=0;exitDy=0;entryX=0.008;entryY=0.608;entryDx=0;entryDy=0;entryPerimeter=0;dashed=1;" edge="1" parent="P1Pqax5XZkCosQ1yJxeZ-2" source="P1Pqax5XZkCosQ1yJxeZ-3" target="S4QatcUa7ggixsl-GR9r-7">
          <mxGeometry width="50" height="50" relative="1" as="geometry">
            <mxPoint x="140" y="170" as="sourcePoint" />
            <mxPoint x="190" y="120" as="targetPoint" />
          </mxGeometry>
        </mxCell>
        <mxCell id="S4QatcUa7ggixsl-GR9r-7" value="Data extraction using OCR" style="ellipse;whiteSpace=wrap;html=1;" vertex="1" parent="P1Pqax5XZkCosQ1yJxeZ-2">
          <mxGeometry x="300" y="10" width="120" height="80" as="geometry" />
        </mxCell>
        <mxCell id="S4QatcUa7ggixsl-GR9r-8" value="Abnormal values detection" style="ellipse;whiteSpace=wrap;html=1;" vertex="1" parent="P1Pqax5XZkCosQ1yJxeZ-2">
          <mxGeometry x="280" y="404" width="120" height="80" as="geometry" />
        </mxCell>
        <mxCell id="S4QatcUa7ggixsl-GR9r-9" value="&amp;lt;&amp;lt;extends&amp;gt;&amp;gt;" style="text;html=1;align=center;verticalAlign=middle;resizable=0;points=[];autosize=1;strokeColor=none;fillColor=none;rotation=0;fontSize=9;" vertex="1" parent="P1Pqax5XZkCosQ1yJxeZ-2">
          <mxGeometry x="200" y="40" width="80" height="20" as="geometry" />
        </mxCell>
        <mxCell id="S4QatcUa7ggixsl-GR9r-12" value="&amp;lt;&amp;lt;include&amp;gt;&amp;gt;" style="text;html=1;align=center;verticalAlign=middle;resizable=0;points=[];autosize=1;strokeColor=none;fillColor=none;rotation=0;fontSize=9;" vertex="1" parent="P1Pqax5XZkCosQ1yJxeZ-2">
          <mxGeometry x="175" y="454" width="70" height="20" as="geometry" />
        </mxCell>
        <mxCell id="mwSjg3fP-pFxrxpbKHzR-1" value="Cause and solution suggestions" style="ellipse;whiteSpace=wrap;html=1;" vertex="1" parent="P1Pqax5XZkCosQ1yJxeZ-2">
          <mxGeometry x="270" y="524" width="120" height="80" as="geometry" />
        </mxCell>
        <mxCell id="mwSjg3fP-pFxrxpbKHzR-2" value="&amp;lt;&amp;lt;include&amp;gt;&amp;gt;" style="text;html=1;align=center;verticalAlign=middle;resizable=0;points=[];autosize=1;strokeColor=none;fillColor=none;rotation=0;fontSize=9;" vertex="1" parent="P1Pqax5XZkCosQ1yJxeZ-2">
          <mxGeometry x="165" y="544" width="70" height="20" as="geometry" />
        </mxCell>
        <mxCell id="mwSjg3fP-pFxrxpbKHzR-4" value="" style="edgeStyle=orthogonalEdgeStyle;rounded=0;orthogonalLoop=1;jettySize=auto;html=1;dashed=1;exitX=1;exitY=0.5;exitDx=0;exitDy=0;entryX=0;entryY=0.5;entryDx=0;entryDy=0;" edge="1" parent="P1Pqax5XZkCosQ1yJxeZ-2" source="S4QatcUa7ggixsl-GR9r-4" target="S4QatcUa7ggixsl-GR9r-8">
          <mxGeometry relative="1" as="geometry">
            <mxPoint x="190" y="514" as="sourcePoint" />
            <mxPoint x="280" y="574" as="targetPoint" />
            <Array as="points">
              <mxPoint x="240" y="504" />
              <mxPoint x="240" y="444" />
            </Array>
          </mxGeometry>
        </mxCell>
        <mxCell id="XI9kgFLfwU5borjlFcoO-2" value="OCR" style="ellipse;whiteSpace=wrap;html=1;" vertex="1" parent="P1Pqax5XZkCosQ1yJxeZ-2">
          <mxGeometry x="290" y="120" width="120" height="80" as="geometry" />
        </mxCell>
        <mxCell id="XI9kgFLfwU5borjlFcoO-1" value="Diagnosis Calculations" style="ellipse;whiteSpace=wrap;html=1;" vertex="1" parent="P1Pqax5XZkCosQ1yJxeZ-2">
          <mxGeometry x="300" y="300" width="120" height="80" as="geometry" />
        </mxCell>
        <mxCell id="XI9kgFLfwU5borjlFcoO-3" value="Data Collection" style="ellipse;whiteSpace=wrap;html=1;" vertex="1" parent="P1Pqax5XZkCosQ1yJxeZ-2">
          <mxGeometry x="300" y="210" width="120" height="80" as="geometry" />
        </mxCell>
        <mxCell id="S4QatcUa7ggixsl-GR9r-3" value="" style="edgeStyle=orthogonalEdgeStyle;rounded=0;orthogonalLoop=1;jettySize=auto;html=1;entryX=0;entryY=0.5;entryDx=0;entryDy=0;" edge="1" parent="1" source="P1Pqax5XZkCosQ1yJxeZ-4" target="P1Pqax5XZkCosQ1yJxeZ-3">
          <mxGeometry relative="1" as="geometry">
            <mxPoint x="215" y="270" as="targetPoint" />
          </mxGeometry>
        </mxCell>
        <mxCell id="P1Pqax5XZkCosQ1yJxeZ-4" value="User" style="shape=umlActor;verticalLabelPosition=bottom;verticalAlign=top;html=1;outlineConnect=0;" vertex="1" parent="1">
          <mxGeometry x="110" y="230" width="30" height="60" as="geometry" />
        </mxCell>
        <mxCell id="S4QatcUa7ggixsl-GR9r-5" value="" style="edgeStyle=orthogonalEdgeStyle;rounded=0;orthogonalLoop=1;jettySize=auto;html=1;entryX=0;entryY=0.5;entryDx=0;entryDy=0;exitX=0.5;exitY=0.5;exitDx=0;exitDy=0;exitPerimeter=0;" edge="1" parent="1" source="P1Pqax5XZkCosQ1yJxeZ-4" target="S4QatcUa7ggixsl-GR9r-4">
          <mxGeometry relative="1" as="geometry">
            <mxPoint x="160" y="280" as="sourcePoint" />
            <mxPoint x="330" y="230" as="targetPoint" />
          </mxGeometry>
        </mxCell>
        <mxCell id="XI9kgFLfwU5borjlFcoO-4" value="" style="edgeStyle=orthogonalEdgeStyle;rounded=0;orthogonalLoop=1;jettySize=auto;html=1;" edge="1" parent="1" source="rUj4O-8d-cBMbIt-koZT-1" target="XI9kgFLfwU5borjlFcoO-3">
          <mxGeometry relative="1" as="geometry" />
        </mxCell>
        <mxCell id="rUj4O-8d-cBMbIt-koZT-1" value="System" style="shape=umlActor;verticalLabelPosition=bottom;verticalAlign=top;html=1;outlineConnect=0;" vertex="1" parent="1">
          <mxGeometry x="700" y="230" width="30" height="60" as="geometry" />
        </mxCell>
        <mxCell id="XI9kgFLfwU5borjlFcoO-5" value="" style="edgeStyle=orthogonalEdgeStyle;rounded=0;orthogonalLoop=1;jettySize=auto;html=1;entryX=1;entryY=0.5;entryDx=0;entryDy=0;" edge="1" parent="1" source="rUj4O-8d-cBMbIt-koZT-1" target="XI9kgFLfwU5borjlFcoO-2">
          <mxGeometry relative="1" as="geometry">
            <mxPoint x="710" y="270" as="sourcePoint" />
            <mxPoint x="600" y="270" as="targetPoint" />
          </mxGeometry>
        </mxCell>
        <mxCell id="XI9kgFLfwU5borjlFcoO-6" value="" style="edgeStyle=orthogonalEdgeStyle;rounded=0;orthogonalLoop=1;jettySize=auto;html=1;entryX=1;entryY=0.5;entryDx=0;entryDy=0;" edge="1" parent="1" target="XI9kgFLfwU5borjlFcoO-1">
          <mxGeometry relative="1" as="geometry">
            <mxPoint x="700" y="260" as="sourcePoint" />
            <mxPoint x="590" y="180" as="targetPoint" />
          </mxGeometry>
        </mxCell>
      </root>
    </mxGraphModel>
  </diagram>
</mxfile>
